<svg xmlns="http://www.w3.org/2000/svg" viewBox="0 0 595.28 688.11"><defs><style>.cls-1{fill:#010101;}</style></defs><g id="Layer_2" data-name="Layer 2"><g id="Layer_1-2" data-name="Layer 1"><path class="cls-1" d="M595.2,665.65c-1-12.83-2.65-25.61-4-38.41q-4-38.1-8.06-76.19c-2.63-25.2-5.19-50.41-7.82-75.61q-4.05-38.71-8.16-77.41-3.93-37.5-7.83-75-4.05-38.71-8.14-77.42c-2.62-25-5.42-50-7.79-75-1.67-17.65-12.9-21.9-25.49-21.87-29.48.08-59-.06-88.43.12-4.05,0-5.15-1.07-5-5.06.49-14.33.6-28.79-2.58-42.78C404.69,25.42,330.94-14.61,263.65,4.91,222.87,16.75,195,43,179.17,82.17c-7.67,19-8.73,38.94-8.06,59,.19,5.83-.86,7.87-7.4,7.77-29.27-.44-58.54-.16-87.81-.21-15.22,0-23.17,9.74-23.71,21-.6,12.63-2.56,25.2-3.9,37.79q-4,38.1-8.06,76.2-4,37.49-7.88,75-4,38.08-8.09,76.19c-2.63,25-5.2,50-7.85,75-2.67,25.2-5.44,50.38-8.1,75.57S3.67,636,.29,661.11c-2.39,17.7,10.39,27.07,23.4,27,91.29-.43,182.59-.22,273.88-.23q138.17,0,276.34,0C587,687.87,596.21,678.53,595.2,665.65ZM217,98.3c13-33.23,37-52.65,72.63-56.6,45.12-5,86.85,27.45,92.93,74.11,1.27,9.69.5,19.62,1,29.42.22,4.59-2.78,3.54-5.21,3.54q-40.23,0-80.44,0c-26.82,0-53.63-.09-80.44.09-4.1,0-5.59-.7-5.51-5.21C212.21,128.36,211.26,113,217,98.3ZM545.93,647.17q-247.77,0-495.55.14c-5.72,0-7.17-1.48-6.53-7,2.5-21.29,4.72-42.61,7-63.93q3.36-31.67,6.59-63.36,3.33-32,6.66-64c2.26-21.54,4.58-43.07,6.84-64.6q4-38.12,7.93-76.24Q83.47,264,88.13,219.8c.89-8.54,1.88-17.08,2.5-25.64.24-3.32,1.67-3.93,4.63-3.92,23.95.1,47.9.14,71.85,0,3.53,0,3.94,1.39,3.92,4.29q-.15,20,0,39.92c0,9,4.1,15.77,12.4,19.43,7.82,3.45,15.2,2,21.69-3.41,5.24-4.4,7-10.39,7-17,0-12.69.13-25.39-.08-38.07-.06-3.77.63-5.2,4.89-5.19q80.75.24,161.5,0c4.53,0,5.27,1.48,5.2,5.54-.24,13.1-.21,26.2,0,39.3.15,9.27,4.51,16,13.39,19.26,8.59,3.13,16,.82,22.28-5.63,4.08-4.22,5.32-9.52,5.31-15.21,0-12.69.13-25.39-.07-38.07-.07-3.77.61-5.24,4.88-5.2,23.34.24,46.67.2,70,0,3.87,0,5,.95,5.38,4.95,4.62,45.35,9.57,90.67,14.31,136,4.29,41.05,8.35,82.13,12.66,123.18,3.88,36.95,8,73.89,11.93,110.84,2.87,27.19,5.56,54.41,8.37,82Z"/></g></g></svg>