<svg xmlns="http://www.w3.org/2000/svg" viewBox="0 0 595.28 529.33"><defs><style>.cls-1{fill:#010101;}</style></defs><g id="Layer_2" data-name="Layer 2"><g id="Layer_1-2" data-name="Layer 1"><path class="cls-1" d="M593.31,151.28c-4.57-32.73-15.64-62.72-36.1-88.7C529.36,27.2,493.13,6.18,448,1.12c-38-4.26-73,3.74-104.68,25.46a179.65,179.65,0,0,0-42.8,41.63c-2,2.7-3.23,3.48-5.53.17a138.27,138.27,0,0,0-9.71-11.94C253.91,20.5,215,.47,166.72,0c-21.83-.08-42.94,3.66-61.12,11.41C52.47,34,20.36,74.45,6.25,129.79a194.07,194.07,0,0,0-2.5,86.76c6.85,34.48,23,64.69,44,92.48,28.57,37.79,62.9,70,98.44,101,41.63,36.28,83.65,72.11,125.46,108.19,17.07,14.73,35,14.83,52,.17,44.76-38.65,89.72-77.07,134.23-116,32.29-28.24,63-58.15,89.1-92.37C582.79,263.08,601.68,211.26,593.31,151.28Zm-43.89,85.35c-7.28,18.94-18,35.94-30.15,52.13-19.92,26.65-43.4,50-67.91,72.27-49,44.56-99.76,87.07-149.93,130.29-2.77,2.38-4.28,2.77-7.29.14C244.2,448,193.07,405.89,144.21,361.18c-29.18-26.69-57-54.65-78.94-87.85C44.94,242.6,33.62,209.19,35.24,172c1.58-36.3,12.81-69.07,37.48-96.24C92.49,54,117.29,40.82,146.53,36.41c3.14-.47,6.29-.87,9.46-1s6.36,0,9.55,0c31.65-.77,58.55,10.88,81.72,31.93,12.68,11.52,22.69,25.19,32,39.5,6.37,9.83,17.91,12.8,28.39,8,5.29-2.45,8.17-7.16,11.14-11.75,11.5-17.86,25-33.88,42.44-46.25,21.46-15.22,45.24-22.27,71.67-21.7,63.43,1.39,110.87,48.46,123.26,106.34C563.09,173.87,561.34,205.59,549.42,236.63Z"/></g></g></svg>