<svg xmlns="http://www.w3.org/2000/svg" viewBox="0 0 32.89 27.27"><g id="Layer_2" data-name="Layer 2"><g id="Layer_1-2" data-name="Layer 1"><path d="M25.42,0H7.62a.31.31,0,0,0-.31.31.31.31,0,0,0,.31.32H25.13l6.93,8.14L16.45,26.33.83,8.77,6.36,2.28h18l5.51,6.47L16.45,23.85,3,8.75l4.1-4.82H23.6l4.09,4.8L16.45,21.37,5.2,8.73,7.89,5.57h15L25.5,8.7l-9,10.19L7.39,8.7,9,6.79a.32.32,0,0,0,0-.44.31.31,0,0,0-.44,0l-2,2.33,9.89,11.12L26.34,8.71,23.13,5H7.6L4.37,8.74,16.45,22.31,28.52,8.74,23.89,3.3H6.83L2.19,8.76l14.26,16,14.26-16L24.65,1.65H6.07L0,8.78,16.45,27.27,32.89,8.78Z"/></g></g></svg>