<svg xmlns="http://www.w3.org/2000/svg" viewBox="0 0 595.28 493.6"><defs><style>.cls-1{fill:#fff;}</style></defs><g id="Layer_2" data-name="Layer 2"><g id="Layer_1-2" data-name="Layer 1"><path class="cls-1" d="M460,0H137.92a5.69,5.69,0,1,0,0,11.37H454.73L580.2,158.8,297.64,476.49,15.07,158.8,115.15,41.2H440.94l99.71,117.17-243,273.23-243-273.23L128.94,71H427.15l74,86.9L297.64,386.71,94.16,157.94l48.56-57.06H413.36l48.21,56.63L297.64,341.81,133.7,157.51l29.5-34.65a5.69,5.69,0,1,0-8.66-7.37l-35.9,42.18,179,201.25,179-201.25-58-68.16H137.47l-58.38,68.6,218.55,245.7,218.55-245.7L432.41,59.67H123.69L39.55,158.53,297.64,448.7,555.73,158.53,446.2,29.84H109.9L0,159,297.64,493.6,595.28,159Z"/></g></g></svg>